<svg width="260" height="260" viewBox="0 0 260 260" fill="none" xmlns="http://www.w3.org/2000/svg">
<rect width="260" height="260" fill="black"/>
<g clip-path="url(#clip0_1459_138)">
<mask id="mask0_1459_138" style="mask-type:luminance" maskUnits="userSpaceOnUse" x="40" y="79" width="180" height="103">
<path d="M220 79.3281H40V181.67H220V79.3281Z" fill="white"/>
</mask>
<g mask="url(#mask0_1459_138)">
<path d="M209.908 174.361L205.893 169.171H205.054L209.58 175.018V180.598H210.24V175.016L214.697 169.171H213.865L209.908 174.361ZM204.772 169.132L195.772 169.233L195.779 169.894L199.791 169.851L199.909 180.603L200.568 180.597L200.451 169.844L204.779 169.795L204.772 169.132ZM193.7 180.598H194.361V169.169H193.7V180.598ZM184.537 169.171H183.876V180.625H192.277V179.962H184.537V169.171ZM175.65 176.087L177.806 170.141L179.965 176.087H175.65ZM177.456 169.169L173.309 180.598H174.015L175.408 176.751H180.202L181.599 180.598H182.302L178.16 169.169H177.456ZM165.553 180.625H172.428V179.962H166.213V175.234H172.03V174.572H166.213V169.846H172.428V169.183H165.553V180.625ZM159.575 175.919H155.198V169.844H159.575C161.248 169.844 162.606 171.208 162.606 172.882C162.606 174.558 161.248 175.919 159.575 175.919ZM163.271 172.882C163.271 170.842 161.611 169.181 159.575 169.181H154.537V180.598H155.198V176.583H159.575C159.753 176.583 159.925 176.57 160.098 176.547L162.904 180.598H163.709L160.784 176.378C162.229 175.876 163.271 174.5 163.271 172.882ZM147.653 179.546C146.758 180.365 145.353 180.597 144.232 180.108C143.484 179.783 143.025 179.243 142.933 178.585C142.809 177.658 143.434 176.58 144.696 175.55L145.39 174.943L148.926 178.142C148.544 178.668 148.12 179.134 147.653 179.546ZM144.397 173.261C144.028 172.934 143.904 172.485 144.065 172.057C144.258 171.545 144.785 171.217 145.41 171.217C146.032 171.217 146.563 171.545 146.754 172.057C146.915 172.485 146.789 172.934 146.421 173.261L145.396 174.162L144.397 173.261ZM150.473 176.635L149.946 176.389C149.735 176.842 149.505 177.264 149.256 177.657L145.83 174.557L146.803 173.698C147.354 173.213 147.543 172.507 147.297 171.854C147.02 171.111 146.279 170.634 145.411 170.634C144.542 170.634 143.8 171.111 143.523 171.854C143.276 172.507 143.464 173.213 144.011 173.696L144.958 174.55L144.326 175.102C142.901 176.264 142.204 177.53 142.359 178.664C142.478 179.52 143.075 180.24 144.001 180.642C144.475 180.848 144.986 180.949 145.493 180.949C146.424 180.949 147.349 180.613 148.042 179.981C148.526 179.551 148.964 179.072 149.361 178.535L151.834 180.776L152.224 180.341L149.693 178.053C149.976 177.615 150.237 177.145 150.473 176.635ZM132.748 180.625H139.624V179.962H133.409V175.234H139.226V174.572H133.409V169.846H139.624V169.183H132.748V180.625ZM126.393 180.085C123.702 180.085 121.514 177.751 121.514 174.884C121.514 172.017 123.702 169.683 126.393 169.683C127.59 169.683 128.741 170.151 129.635 171L130.092 170.52C129.072 169.552 127.758 169.02 126.393 169.02C123.336 169.02 120.854 171.649 120.854 174.884C120.854 178.117 123.336 180.747 126.393 180.747C128.329 180.747 130.092 179.704 131.112 177.955L130.54 177.622C129.64 179.164 128.092 180.085 126.393 180.085ZM118.187 179.299L110.604 169.171H110.115V180.598H110.778V170.507L118.331 180.598H118.847V169.171H118.187V179.299ZM101.89 176.087L104.047 170.141L106.203 176.087H101.89ZM103.695 169.169L99.5491 180.598H100.252L101.649 176.751H106.444L107.841 180.598H108.544L104.396 169.169H103.695ZM97.3153 179.299L89.7319 169.171H89.2446V180.598H89.906V170.507L97.4593 180.598H97.9751V169.171H97.3153V179.299ZM86.0582 180.598H86.7196V169.169H86.0582V180.598ZM78.2605 180.598H78.9202V175.234H84.3587V174.572H78.9202V169.846H84.3587V169.183H78.2605V180.598ZM68.4384 103.217C75.563 103.217 81.5105 108.142 82.7965 114.046H54.0902C55.3226 108.341 61.3706 103.217 68.4384 103.217ZM95.5237 128.355H82.6658C79.7239 133.526 73.7328 136.095 68.4384 136.095C61.0156 136.095 54.0902 129.778 53.3602 122.84H96.7025C96.813 121.785 96.8783 120.728 96.8783 119.661C96.8783 103.917 84.1494 91.1528 68.4384 91.1528C52.739 91.1528 40 103.917 40 119.661C40 135.393 52.739 148.146 68.4384 148.146C81.122 148.146 91.8517 139.841 95.5237 128.355ZM178.94 92.7719C193.732 92.7719 205.769 104.831 205.769 119.653C205.769 134.474 193.732 146.53 178.94 146.53C167.17 146.53 157.146 138.895 153.547 128.298C152.402 134.048 150.106 139.376 146.902 144.04C154.257 153.721 165.868 159.969 178.94 159.969C201.166 159.969 219.181 141.921 219.181 119.653C219.181 97.379 201.166 79.3315 178.94 79.3315C156.715 79.3315 138.699 97.379 138.699 119.653C138.699 134.474 126.666 146.53 111.878 146.53H91.7546L91.6993 146.501H83.637C81.9492 147.463 80.161 148.272 78.2939 148.904L78.3408 159.969H111.878C134.101 159.969 152.114 141.921 152.114 119.653C152.114 104.831 164.148 92.7719 178.94 92.7719ZM83.5885 92.7685H111.874C123.679 92.7685 133.72 100.454 137.297 111.089C138.466 105.352 140.797 100.04 144.015 95.3925C136.674 85.6398 125.012 79.3281 111.874 79.3281H78.3408V90.408C80.1744 91.0337 81.9291 91.8273 83.5885 92.7685Z" fill="white"/>
</g>
</g>
<defs>
<clipPath id="clip0_1459_138">
<rect width="180" height="101" fill="white" transform="translate(40 80)"/>
</clipPath>
</defs>
</svg>
