<?xml version="1.0" encoding="UTF-8"?>
<svg id="Layer_2" data-name="Layer 2" xmlns="http://www.w3.org/2000/svg" viewBox="0 0 120.22 68.05">
  <defs>
    <style>
      .cls-1 {
        fill: #5d2e89;
      }
    </style>
  </defs>
  <g id="Typo">
    <path class="cls-1" d="M34.72,9h0s13.5,0,13.5,0c7.92,0,14.66,5.15,17.06,12.27.78-3.84,2.35-7.4,4.51-10.51C64.86,4.23,57.04,0,48.22,0h-22.5v7.42c1.23.42,2.41.95,3.52,1.58h5.48ZM93.22,9c9.92,0,18,8.08,18,18s-8.08,18-18,18c-7.9,0-14.62-5.11-17.04-12.21-.77,3.85-2.31,7.42-4.46,10.54,4.93,6.48,12.72,10.67,21.5,10.67,14.91,0,27-12.09,27-27S108.13,0,93.22,0s-27,12.08-27,27c0,9.92-8.07,18-18,18h-13.5l-.04-.02h-5.41c-1.13.64-2.33,1.19-3.58,1.61l.03,7.41h22.5c14.91,0,27-12.09,27-27,0-9.92,8.07-18,18-18ZM37.25,32.83h-8.63c-1.97,3.46-5.99,5.18-9.55,5.18-4.98,0-9.63-4.23-10.12-8.87h29.08c.07-.71.12-1.41.12-2.13,0-10.54-8.54-19.09-19.08-19.09S0,16.46,0,27.01s8.55,19.07,19.08,19.07c8.51,0,15.71-5.56,18.17-13.25ZM19.08,16c4.78,0,8.77,3.3,9.63,7.25H9.45c.83-3.82,4.88-7.25,9.63-7.25ZM25.67,67.81h.44v-3.59h3.65v-.44h-3.65v-3.17h3.65v-.44h-4.09v7.64ZM30.9,67.81h.44v-7.65h-.44v7.65ZM38.45,66.94l-5.09-6.78h-.33v7.65h.44v-6.76l5.07,6.76h.35v-7.65h-.44v6.78ZM42.73,60.16l-2.78,7.65h.47l.94-2.58h3.22l.94,2.58h.47l-2.78-7.65h-.47ZM41.52,64.79l1.45-3.98,1.45,3.98h-2.89ZM52.46,66.94l-5.09-6.78h-.33v7.65h.45v-6.76l5.07,6.76h.35v-7.65h-.44v6.78ZM57.96,67.47c-1.8,0-3.27-1.56-3.27-3.48s1.47-3.48,3.27-3.48c.8,0,1.58.31,2.17.88l.31-.32c-.68-.65-1.57-1-2.48-1-2.05,0-3.72,1.76-3.72,3.93s1.67,3.93,3.72,3.93c1.3,0,2.48-.7,3.17-1.87l-.38-.22c-.6,1.03-1.64,1.65-2.78,1.65ZM62.23,67.83h4.61v-.44h-4.17v-3.17h3.9v-.44h-3.9v-3.17h4.17v-.44h-4.61v7.66ZM74.12,65.16l-.35-.16c-.14.3-.3.59-.46.85l-2.3-2.08.65-.57c.37-.33.5-.8.33-1.24-.19-.5-.68-.82-1.27-.82s-1.08.32-1.27.82c-.16.44-.04.91.33,1.23l.63.57-.42.37c-.96.78-1.42,1.62-1.32,2.38.08.57.48,1.05,1.1,1.32.32.14.66.21,1,.21.62,0,1.24-.22,1.71-.65.33-.29.62-.61.89-.97l1.66,1.5.26-.29-1.7-1.53c.19-.29.36-.61.52-.95ZM70.04,62.9c-.25-.22-.33-.52-.22-.81.13-.34.48-.56.9-.56s.77.22.9.56c.11.29.02.59-.22.81l-.69.6-.67-.6ZM72.23,67.11c-.6.55-1.54.7-2.3.38-.5-.22-.81-.58-.87-1.02-.08-.62.34-1.34,1.18-2.03l.46-.41,2.37,2.14c-.26.35-.54.66-.85.94ZM82.71,62.64c0-1.37-1.11-2.48-2.48-2.48h-3.38v7.64h.44v-2.69h2.94c.12,0,.23,0,.35-.02l1.88,2.71h.54l-1.96-2.83c.97-.34,1.67-1.26,1.67-2.34ZM80.23,64.68h-2.94v-4.07h2.94c1.12,0,2.03.91,2.03,2.03s-.91,2.03-2.03,2.03ZM84.24,67.83h4.61v-.44h-4.17v-3.17h3.9v-.44h-3.9v-3.17h4.17v-.44h-4.61v7.66ZM92.22,60.16l-2.78,7.65h.47l.94-2.58h3.22l.94,2.58h.47l-2.78-7.65h-.47ZM91.01,64.79l1.45-3.98,1.45,3.98h-2.9ZM96.97,60.16h-.44v7.67h5.64v-.44h-5.19v-7.23ZM103.12,67.81h.44v-7.65h-.44v7.65ZM110.55,60.13l-6.04.07v.44s2.7-.03,2.7-.03l.08,7.2h.44s-.08-7.21-.08-7.21l2.9-.03v-.44ZM114,63.63l-2.69-3.48h-.56l3.04,3.92v3.74h.44v-3.74l2.99-3.91h-.56l-2.66,3.48Z"/>
  </g>
</svg>