<svg width="250" height="140" viewBox="0 0 250 140" fill="none" xmlns="http://www.w3.org/2000/svg">
<g id="eDO_logo 1" clip-path="url(#clip0_1135_1708)">
<g id="Group">
<g id="Group_2">
<path id="Vector" d="M235.984 130.798L230.408 123.605H229.243L235.529 131.709V139.444H236.445V131.707L242.636 123.605H241.48L235.984 130.798ZM228.85 123.551L216.35 123.691L216.361 124.607L221.933 124.547L222.096 139.451L223.012 139.442L222.849 124.537L228.861 124.47L228.85 123.551ZM213.473 139.444H214.391V123.602H213.473V139.444ZM200.747 123.605H199.829V139.481H211.496V138.563H200.747V123.605ZM188.403 133.191L191.398 124.949L194.396 133.191H188.403ZM190.912 123.602L185.152 139.444H186.133L188.068 134.112H194.726L196.666 139.444H197.643L191.889 123.602H190.912ZM174.38 139.481H183.929V138.563H175.296V132.009H183.375V131.091H175.296V124.54H183.929V123.621H174.38V139.481ZM166.077 132.958H159.998V124.537H166.077C168.401 124.537 170.287 126.428 170.287 128.749C170.287 131.072 168.401 132.958 166.077 132.958ZM171.21 128.749C171.21 125.921 168.905 123.619 166.077 123.619H159.08V139.444H159.998V133.879H166.077C166.324 133.879 166.563 133.861 166.803 133.828L170.701 139.444H171.819L167.756 133.595C169.763 132.898 171.21 130.991 171.21 128.749ZM149.519 137.986C148.275 139.121 146.324 139.442 144.768 138.765C143.729 138.314 143.091 137.565 142.963 136.654C142.791 135.368 143.659 133.874 145.412 132.447L146.375 131.605L151.287 136.04C150.756 136.768 150.168 137.414 149.519 137.986ZM144.996 129.274C144.484 128.821 144.312 128.198 144.536 127.605C144.803 126.895 145.536 126.44 146.403 126.44C147.268 126.44 148.005 126.895 148.27 127.605C148.494 128.198 148.319 128.821 147.808 129.274L146.384 130.523L144.996 129.274ZM153.436 133.951L152.703 133.609C152.41 134.237 152.091 134.823 151.745 135.367L146.987 131.07L148.338 129.879C149.103 129.207 149.366 128.228 149.024 127.323C148.64 126.293 147.61 125.633 146.405 125.633C145.198 125.633 144.168 126.293 143.782 127.323C143.44 128.228 143.701 129.207 144.461 129.877L145.775 131.061L144.898 131.826C142.919 133.437 141.95 135.191 142.166 136.763C142.331 137.949 143.161 138.947 144.447 139.505C145.105 139.791 145.815 139.93 146.519 139.93C147.812 139.93 149.096 139.465 150.059 138.588C150.731 137.993 151.34 137.328 151.891 136.584L155.326 139.691L155.868 139.088L152.352 135.916C152.745 135.309 153.108 134.658 153.436 133.951ZM128.817 139.481H138.368V138.563H129.736V132.009H137.815V131.091H129.736V124.54H138.368V123.621H128.817V139.481ZM119.991 138.733C116.254 138.733 113.215 135.498 113.215 131.523C113.215 127.549 116.254 124.314 119.991 124.314C121.654 124.314 123.252 124.963 124.494 126.14L125.129 125.474C123.712 124.133 121.887 123.395 119.991 123.395C115.745 123.395 112.298 127.04 112.298 131.523C112.298 136.005 115.745 139.651 119.991 139.651C122.68 139.651 125.129 138.205 126.545 135.781L125.75 135.319C124.501 137.456 122.35 138.733 119.991 138.733ZM108.594 137.644L98.0611 123.605H97.3821V139.444H98.303V125.456L108.794 139.444H109.51V123.605H108.594V137.644ZM85.9588 133.191L88.9542 124.949L91.9495 133.191H85.9588ZM88.4658 123.602L82.7077 139.444H83.6844L85.6239 134.112H92.2844L94.2239 139.444H95.2007L89.4402 123.602H88.4658ZM79.6053 137.644L69.0728 123.605H68.396V139.444H69.3146V125.456L79.8053 139.444H80.5216V123.605H79.6053V137.644ZM63.9704 139.444H64.889V123.602H63.9704V139.444ZM53.1402 139.444H54.0565V132.009H61.61V131.091H54.0565V124.54H61.61V123.621H53.1402V139.444ZM39.4984 32.1838C49.3937 32.1838 57.6542 39.0094 59.4402 47.1931H19.5704C21.2821 39.2861 29.6821 32.1838 39.4984 32.1838ZM77.1169 67.028H59.2588C55.1728 74.1954 46.8518 77.7559 39.4984 77.7559C29.189 77.7559 19.5704 69.0001 18.5565 59.3838H78.7542C78.9076 57.921 78.9983 56.4559 78.9983 54.9768C78.9983 33.1535 61.3193 15.4605 39.4984 15.4605C17.6937 15.4605 0.000675201 33.1535 0.000675201 54.9768C0.000675201 76.7838 17.6937 94.4605 39.4984 94.4605C57.1146 94.4605 72.0169 82.9489 77.1169 67.028ZM192.973 17.7047C213.517 17.7047 230.236 34.421 230.236 54.9652C230.236 75.5094 213.517 92.221 192.973 92.221C176.626 92.221 162.703 81.6373 157.705 66.9489C156.115 74.9187 152.926 82.3047 148.475 88.7698C158.691 102.188 174.817 110.849 192.973 110.849C223.843 110.849 248.863 85.8326 248.863 54.9652C248.863 24.0908 223.843 -0.925524 192.973 -0.925524C162.105 -0.925524 137.082 24.0908 137.082 54.9652C137.082 75.5094 120.37 92.221 99.8309 92.221H71.8821L71.8053 92.1814H60.6076C58.2635 93.514 55.7798 94.6349 53.1867 95.5117L53.2518 110.849H99.8309C130.696 110.849 155.715 85.8326 155.715 54.9652C155.715 34.421 172.429 17.7047 192.973 17.7047ZM60.5402 17.7001H99.8263C116.222 17.7001 130.168 28.3535 135.136 43.0954C136.759 35.1419 139.996 27.7791 144.466 21.3373C134.27 7.81866 118.073 -0.930176 99.8263 -0.930176H53.2518V14.428C55.7984 15.2954 58.2355 16.3954 60.5402 17.7001Z" fill="white"/>
</g>
</g>
</g>
<defs>
<clipPath id="clip0_1135_1708">
<rect width="250" height="141.86" fill="white" transform="translate(0 -0.930176)"/>
</clipPath>
</defs>
</svg>
