<svg width="260" height="260" viewBox="0 0 260 260" fill="none" xmlns="http://www.w3.org/2000/svg">
<rect width="260" height="260" fill="#5C2D89"/>
<mask id="mask0_1459_138" style="mask-type:luminance" maskUnits="userSpaceOnUse" x="95" y="25" width="70" height="40">
<path d="M165 25H95V64.7996H165V25Z" fill="white"/>
</mask>
<g mask="url(#mask0_1459_138)">
<path d="M161.075 61.9571L159.514 59.939H159.188L160.948 62.2127V64.3828H161.204V62.2121L162.938 59.939H162.614L161.075 61.9571ZM159.078 59.9239L155.578 59.9632L155.581 60.2202L157.141 60.2033L157.187 64.3847L157.443 64.3822L157.398 60.2005L159.081 60.1817L159.078 59.9239ZM154.772 64.3828H155.029V59.9382H154.772V64.3828ZM151.209 59.939H150.952V64.3931H154.219V64.1356H151.209V59.939ZM147.753 62.6284L148.591 60.3161L149.431 62.6284H147.753ZM148.455 59.9382L146.842 64.3828H147.117L147.659 62.8868H149.523L150.066 64.3828H150.34L148.729 59.9382H148.455ZM143.826 64.3931H146.5V64.1356H144.083V62.2968H146.345V62.0393H144.083V60.2014H146.5V59.9435H143.826V64.3931ZM141.501 62.5631H139.799V60.2005H141.501C142.152 60.2005 142.68 60.731 142.68 61.3822C142.68 62.0339 142.152 62.5631 141.501 62.5631ZM142.939 61.3822C142.939 60.5888 142.293 59.943 141.501 59.943H139.542V64.3828H139.799V62.8215H141.501C141.571 62.8215 141.637 62.8164 141.705 62.8072L142.796 64.3828H143.109L141.971 62.7418C142.533 62.5462 142.939 62.0112 142.939 61.3822ZM136.865 63.9737C136.517 64.2921 135.971 64.3822 135.535 64.1923C135.244 64.0657 135.065 63.8556 135.029 63.6C134.981 63.2392 135.224 62.8201 135.715 62.4197L135.985 62.1835L137.36 63.4277C137.211 63.632 137.047 63.8132 136.865 63.9737ZM135.599 61.5295C135.455 61.4024 135.407 61.2276 135.47 61.0613C135.545 60.8621 135.75 60.7344 135.993 60.7344C136.235 60.7344 136.441 60.8621 136.515 61.0613C136.578 61.2276 136.529 61.4024 136.386 61.5295L135.987 61.8799L135.599 61.5295ZM137.962 62.8417L137.757 62.7457C137.675 62.9219 137.585 63.0863 137.488 63.2389L136.156 62.0334L136.534 61.6992C136.749 61.5107 136.822 61.236 136.727 60.9821C136.619 60.6932 136.331 60.508 135.993 60.508C135.655 60.508 135.367 60.6932 135.259 60.9821C135.163 61.236 135.236 61.5107 135.449 61.6987L135.817 62.0309L135.571 62.2455C135.017 62.6975 134.746 63.1896 134.806 63.6306C134.852 63.9633 135.085 64.2433 135.445 64.3999C135.629 64.4801 135.828 64.5191 136.025 64.5191C136.387 64.5191 136.747 64.3886 137.016 64.1426C137.204 63.9757 137.375 63.7891 137.529 63.5804L138.491 64.4521L138.643 64.2829L137.658 63.393C137.768 63.2227 137.87 63.04 137.962 62.8417ZM131.069 64.3931H133.743V64.1356H131.326V62.2968H133.588V62.0393H131.326V60.2014H133.743V59.9435H131.069V64.3931ZM128.597 64.1833C127.551 64.1833 126.7 63.2757 126.7 62.1605C126.7 61.0455 127.551 60.138 128.597 60.138C129.063 60.138 129.51 60.32 129.858 60.6502L130.036 60.4634C129.639 60.0872 129.128 59.8801 128.597 59.8801C127.408 59.8801 126.443 60.9027 126.443 62.1605C126.443 63.4179 127.408 64.4408 128.597 64.4408C129.35 64.4408 130.036 64.0352 130.432 63.3551L130.21 63.2255C129.86 63.825 129.258 64.1833 128.597 64.1833ZM125.406 63.8778L122.457 59.939H122.267V64.3828H122.525V60.4583L125.462 64.3828H125.663V59.939H125.406V63.8778ZM119.068 62.6284L119.907 60.3161L120.746 62.6284H119.068ZM119.77 59.9382L118.158 64.3828H118.431L118.975 62.8868H120.839L121.383 64.3828H121.656L120.043 59.9382H119.77ZM117.289 63.8778L114.34 59.939H114.151V64.3828H114.408V60.4583L117.345 64.3828H117.546V59.939H117.289V63.8778ZM112.912 64.3828H113.169V59.9382H112.912V64.3828ZM109.879 64.3828H110.136V62.2968H112.251V62.0393H110.136V60.2014H112.251V59.9435H109.879V64.3828ZM106.059 34.2903C108.83 34.2903 111.143 36.2053 111.643 38.5013H100.48C100.959 36.2829 103.311 34.2903 106.059 34.2903ZM116.593 44.066H111.592C110.448 46.0769 108.118 47.0758 106.059 47.0758C103.173 47.0758 100.48 44.6193 100.196 41.9214H117.051C117.094 41.511 117.119 41.1 117.119 40.685C117.119 34.5624 112.169 29.5985 106.059 29.5985C99.954 29.5985 95 34.5624 95 40.685C95 46.8031 99.954 51.7624 106.059 51.7624C110.992 51.7624 115.165 48.5327 116.593 44.066ZM149.032 30.2281C154.785 30.2281 159.466 34.918 159.466 40.6818C159.466 46.4455 154.785 51.1341 149.032 51.1341C144.455 51.1341 140.557 48.1648 139.157 44.0439C138.712 46.2798 137.819 48.352 136.573 50.1658C139.433 53.9304 143.949 56.3603 149.032 56.3603C157.676 56.3603 164.681 49.3418 164.681 40.6818C164.681 32.0198 157.676 25.0013 149.032 25.0013C140.389 25.0013 133.383 32.0198 133.383 40.6818C133.383 46.4455 128.703 51.1341 122.952 51.1341H115.127L115.105 51.123H111.97C111.314 51.4968 110.618 51.8113 109.892 52.0573L109.91 56.3603H122.952C131.595 56.3603 138.6 49.3418 138.6 40.6818C138.6 34.918 143.28 30.2281 149.032 30.2281ZM111.951 30.2268H122.951C127.542 30.2268 131.447 33.2157 132.838 37.3516C133.292 35.1202 134.199 33.0545 135.45 31.2473C132.595 27.4545 128.06 25 122.951 25H109.91V29.3088C110.623 29.5522 111.306 29.8608 111.951 30.2268Z" fill="white"/>
</g>
<path d="M33.88 141L25.752 118.6H28.12L35.224 138.184L42.36 118.6H44.728L36.584 141H33.88ZM52.8663 141.416C51.3943 141.416 50.0503 141.037 48.8343 140.28C47.6289 139.523 46.6636 138.509 45.9383 137.24C45.2236 135.96 44.8663 134.547 44.8663 133C44.8663 131.827 45.0743 130.733 45.4903 129.72C45.9063 128.696 46.4769 127.8 47.2023 127.032C47.9383 126.253 48.7916 125.645 49.7623 125.208C50.7329 124.771 51.7676 124.552 52.8663 124.552C54.0503 124.552 55.1383 124.787 56.1303 125.256C57.1329 125.725 57.9916 126.381 58.7063 127.224C59.4316 128.067 59.9756 129.053 60.3383 130.184C60.7116 131.315 60.8663 132.536 60.8022 133.848H47.2343C47.3623 134.861 47.6823 135.768 48.1943 136.568C48.7169 137.368 49.3783 138.003 50.1783 138.472C50.9889 138.931 51.8849 139.165 52.8663 139.176C53.9329 139.176 54.8929 138.899 55.7463 138.344C56.6103 137.789 57.3036 137.027 57.8263 136.056L60.0983 136.584C59.4583 138.003 58.4929 139.165 57.2023 140.072C55.9116 140.968 54.4663 141.416 52.8663 141.416ZM47.1703 132.04H58.5463C58.4716 131.048 58.1676 130.141 57.6343 129.32C57.1116 128.488 56.4343 127.827 55.6023 127.336C54.7703 126.835 53.8583 126.584 52.8663 126.584C51.8743 126.584 50.9676 126.829 50.1463 127.32C49.3249 127.8 48.6529 128.456 48.1302 129.288C47.6076 130.109 47.2876 131.027 47.1703 132.04ZM51.6183 123.24L48.5303 118.632H50.0183L52.8503 121.88L55.6183 118.632H57.1223L54.0663 123.24H51.6183ZM63.545 141V125H65.785V127.208C66.3503 126.397 67.0863 125.752 67.993 125.272C68.8997 124.792 69.8863 124.552 70.953 124.552C71.5717 124.552 72.169 124.632 72.745 124.792L71.833 127.016C71.385 126.877 70.9477 126.808 70.521 126.808C69.657 126.808 68.8623 127.021 68.137 127.448C67.4223 127.875 66.8517 128.445 66.425 129.16C65.9983 129.875 65.785 130.669 65.785 131.544V141H63.545ZM87.072 125H89.312V141H87.072L86.992 138.024C86.4693 139.037 85.7387 139.859 84.8 140.488C83.8613 141.107 82.7413 141.416 81.44 141.416C80.2667 141.416 79.168 141.197 78.144 140.76C77.12 140.312 76.2187 139.699 75.44 138.92C74.6613 138.141 74.0533 137.24 73.616 136.216C73.1787 135.192 72.96 134.093 72.96 132.92C72.96 131.768 73.1733 130.685 73.6 129.672C74.0373 128.659 74.6347 127.768 75.392 127C76.16 126.232 77.0453 125.635 78.048 125.208C79.0613 124.771 80.144 124.552 81.296 124.552C82.6293 124.552 83.792 124.872 84.784 125.512C85.776 126.141 86.5653 126.968 87.152 127.992L87.072 125ZM81.392 139.24C82.5333 139.24 83.5147 138.963 84.336 138.408C85.1573 137.843 85.7867 137.085 86.224 136.136C86.672 135.187 86.896 134.141 86.896 133C86.896 131.827 86.672 130.771 86.224 129.832C85.776 128.883 85.1413 128.131 84.32 127.576C83.4987 127.021 82.5227 126.744 81.392 126.744C80.2613 126.744 79.2267 127.027 78.288 127.592C77.36 128.147 76.6187 128.899 76.064 129.848C75.52 130.797 75.248 131.848 75.248 133C75.248 134.163 75.5307 135.219 76.096 136.168C76.6613 137.107 77.408 137.853 78.336 138.408C79.2747 138.963 80.2933 139.24 81.392 139.24ZM110.569 141.416C109.055 141.416 107.631 141.117 106.297 140.52C104.964 139.912 103.791 139.08 102.777 138.024C101.775 136.957 100.985 135.72 100.409 134.312C99.8439 132.904 99.5613 131.4 99.5613 129.8C99.5613 128.2 99.8439 126.696 100.409 125.288C100.985 123.88 101.775 122.648 102.777 121.592C103.791 120.525 104.964 119.693 106.297 119.096C107.631 118.488 109.055 118.184 110.569 118.184C112.383 118.184 114.052 118.605 115.577 119.448C117.103 120.291 118.367 121.411 119.369 122.808L117.385 123.88C116.596 122.824 115.593 121.987 114.377 121.368C113.172 120.739 111.903 120.424 110.569 120.424C109.343 120.424 108.196 120.675 107.129 121.176C106.073 121.667 105.145 122.344 104.345 123.208C103.545 124.072 102.921 125.069 102.473 126.2C102.025 127.331 101.801 128.531 101.801 129.8C101.801 131.091 102.025 132.301 102.473 133.432C102.932 134.563 103.561 135.56 104.361 136.424C105.172 137.288 106.105 137.965 107.161 138.456C108.228 138.936 109.364 139.176 110.569 139.176C111.956 139.176 113.241 138.861 114.425 138.232C115.62 137.592 116.607 136.76 117.385 135.736L119.369 136.808C118.367 138.205 117.103 139.325 115.577 140.168C114.052 141 112.383 141.416 110.569 141.416ZM122.608 125H124.848V141H122.608V125ZM123.744 122.2C123.381 122.2 123.072 122.083 122.816 121.848C122.57 121.603 122.448 121.299 122.448 120.936C122.448 120.573 122.57 120.275 122.816 120.04C123.072 119.795 123.381 119.672 123.744 119.672C124.096 119.672 124.394 119.795 124.64 120.04C124.896 120.275 125.024 120.573 125.024 120.936C125.024 121.299 124.901 121.603 124.656 121.848C124.41 122.083 124.106 122.2 123.744 122.2ZM136.762 124.552C138.32 124.552 139.733 124.931 141.002 125.688C142.282 126.445 143.301 127.464 144.058 128.744C144.816 130.013 145.194 131.427 145.194 132.984C145.194 134.147 144.976 135.24 144.538 136.264C144.101 137.277 143.493 138.173 142.714 138.952C141.946 139.72 141.05 140.323 140.026 140.76C139.013 141.197 137.925 141.416 136.762 141.416C135.44 141.416 134.298 141.101 133.338 140.472C132.378 139.843 131.621 139.021 131.066 138.008V141H128.826V117H131.066V127.96C131.621 126.947 132.378 126.125 133.338 125.496C134.298 124.867 135.44 124.552 136.762 124.552ZM136.746 139.224C137.888 139.224 138.922 138.947 139.85 138.392C140.778 137.827 141.52 137.069 142.074 136.12C142.629 135.171 142.906 134.125 142.906 132.984C142.906 131.811 142.624 130.755 142.058 129.816C141.493 128.867 140.741 128.115 139.802 127.56C138.874 127.005 137.856 126.728 136.746 126.728C135.616 126.728 134.634 127.011 133.802 127.576C132.981 128.141 132.346 128.899 131.898 129.848C131.461 130.797 131.242 131.843 131.242 132.984C131.242 134.147 131.466 135.203 131.914 136.152C132.362 137.091 132.997 137.837 133.818 138.392C134.65 138.947 135.626 139.224 136.746 139.224ZM147.124 134.872V125H149.364V134.424C149.364 135.299 149.577 136.093 150.004 136.808C150.43 137.523 151.001 138.093 151.716 138.52C152.441 138.947 153.236 139.16 154.1 139.16C154.974 139.16 155.764 138.947 156.468 138.52C157.182 138.093 157.753 137.523 158.18 136.808C158.606 136.093 158.82 135.299 158.82 134.424V125H161.06L161.076 141H158.836L158.82 138.76C158.254 139.571 157.518 140.216 156.612 140.696C155.716 141.176 154.734 141.416 153.668 141.416C152.462 141.416 151.364 141.123 150.372 140.536C149.38 139.949 148.59 139.16 148.004 138.168C147.417 137.176 147.124 136.077 147.124 134.872ZM164.483 141V117H166.723V141H164.483ZM183.072 141H180.496L176.016 133.272L172.816 137.096V141H170.576V117H172.816V133.608L180.032 125H182.96L177.536 131.448L183.072 141ZM192.116 141.416C190.644 141.416 189.3 141.037 188.084 140.28C186.879 139.523 185.914 138.509 185.188 137.24C184.474 135.96 184.116 134.547 184.116 133C184.116 131.827 184.324 130.733 184.74 129.72C185.156 128.696 185.727 127.8 186.452 127.032C187.188 126.253 188.042 125.645 189.012 125.208C189.983 124.771 191.018 124.552 192.116 124.552C193.588 124.552 194.927 124.931 196.132 125.688C197.348 126.445 198.314 127.464 199.028 128.744C199.754 130.024 200.116 131.443 200.116 133C200.116 134.163 199.908 135.251 199.492 136.264C199.076 137.277 198.5 138.173 197.764 138.952C197.039 139.72 196.191 140.323 195.22 140.76C194.26 141.197 193.226 141.416 192.116 141.416ZM192.116 139.176C193.204 139.176 194.18 138.893 195.044 138.328C195.919 137.752 196.607 136.995 197.108 136.056C197.62 135.117 197.876 134.099 197.876 133C197.876 131.88 197.62 130.851 197.108 129.912C196.596 128.963 195.903 128.205 195.028 127.64C194.164 127.075 193.194 126.792 192.116 126.792C191.028 126.792 190.047 127.08 189.172 127.656C188.308 128.221 187.62 128.973 187.108 129.912C186.607 130.851 186.356 131.88 186.356 133C186.356 134.152 186.618 135.197 187.14 136.136C187.663 137.064 188.362 137.805 189.236 138.36C190.111 138.904 191.071 139.176 192.116 139.176ZM209.867 141H207.019L201.179 124.952H203.563L208.443 138.376L213.323 124.952H215.707L209.867 141ZM230.885 125H233.125V141H230.885L230.805 138.024C230.282 139.037 229.551 139.859 228.613 140.488C227.674 141.107 226.554 141.416 225.253 141.416C224.079 141.416 222.981 141.197 221.957 140.76C220.933 140.312 220.031 139.699 219.253 138.92C218.474 138.141 217.866 137.24 217.429 136.216C216.991 135.192 216.773 134.093 216.773 132.92C216.773 131.768 216.986 130.685 217.413 129.672C217.85 128.659 218.447 127.768 219.205 127C219.973 126.232 220.858 125.635 221.861 125.208C222.874 124.771 223.957 124.552 225.109 124.552C226.442 124.552 227.605 124.872 228.597 125.512C229.589 126.141 230.378 126.968 230.965 127.992L230.885 125ZM225.205 139.24C226.346 139.24 227.327 138.963 228.149 138.408C228.97 137.843 229.599 137.085 230.037 136.136C230.485 135.187 230.709 134.141 230.709 133C230.709 131.827 230.485 130.771 230.037 129.832C229.589 128.883 228.954 128.131 228.133 127.576C227.311 127.021 226.335 126.744 225.205 126.744C224.074 126.744 223.039 127.027 222.101 127.592C221.173 128.147 220.431 128.899 219.877 129.848C219.333 130.797 219.061 131.848 219.061 133C219.061 134.163 219.343 135.219 219.909 136.168C220.474 137.107 221.221 137.853 222.149 138.408C223.087 138.963 224.106 139.24 225.205 139.24ZM224.805 123.24L226.085 118.632H228.325L226.309 123.24H224.805Z" fill="white"/>
</svg>
