<!DOCTYPE svg PUBLIC "-//W3C//DTD SVG 1.1//EN" "http://www.w3.org/Graphics/SVG/1.1/DTD/svg11.dtd">

<!-- Uploaded to: SVG Repo, www.svgrepo.com, Transformed by: SVG Repo Mixer Tools -->
<svg fill="#39cbe5" version="1.1" id="Layer_1" xmlns="http://www.w3.org/2000/svg" xmlns:xlink="http://www.w3.org/1999/xlink" viewBox="0 0 512.213 512.213" xml:space="preserve" stroke="#39cbe5">

<g id="SVGRepo_bgCarrier" stroke-width="0"/>

<g id="SVGRepo_tracerCarrier" stroke-linecap="round" stroke-linejoin="round"/>

<g id="SVGRepo_iconCarrier"> <g transform="translate(1 1)"> <g> <g> <path d="M506.16,313.24c-15.36-20.48-30.72-20.48-68.267-0.853l-9.387,5.785V169.027h34.133c3.413,0,6.827-1.707,7.68-5.12 s0-6.827-2.56-9.387L314.16,16.28c-26.453-23.04-64.853-23.04-90.453,0L70.96,155.373c-2.56,2.56-3.413,5.973-2.56,9.387 c0.853,2.56,4.267,5.12,7.68,5.12h34.987v113.612c-20.119,4.929-39.576,15.76-52.053,23.731v-17.876H-0.72v221.867h59.733v-25.6 h110.933c17.067,0,34.987-1.707,52.053-3.413l110.933-17.067c4.267,0,8.533-0.853,11.947-1.707 c10.24-1.707,19.627-6.827,28.16-14.507l128.853-101.547C512.134,338.84,513.84,323.48,506.16,313.24z M98.267,152.813 L234.8,29.08c19.627-17.067,48.64-17.067,67.413,0l136.533,123.733h-20.48c-5.12,0-8.533,3.413-8.533,8.533v168.394 l-45.227,27.872c-10.035,5.854-32.363,7.609-53.332,7.677c3.688-7.52,1.85-16.648-5.548-28.157 c-13.653-19.627-36.693-31.573-61.44-31.573h-0.853h-32.427c-17.92,0-34.987-5.12-48.64-15.36 c-9.387-6.827-20.48-10.24-34.133-9.387V161.347c0-5.12-3.413-8.533-8.533-8.533H98.267z M41.947,494.147h-25.6V306.413h25.6 v12.8v166.4V494.147z M491.654,336.28L361.947,436.973l-0.853,0.853c-5.973,5.12-11.947,8.533-18.773,9.387h-0.853 c-3.413,0.853-5.973,0.853-9.387,0.853l-112.64,17.067c-16.213,2.56-33.28,3.413-49.493,3.413H59.014v-140.8 c12.975-9.191,36.911-23.515,58.788-28.008c1.111,0.261,2.307,0.248,3.506-0.152c7.772-1.036,14.594-1.119,20.478,0.305 c3.406,1.029,6.566,2.596,9.389,4.815c16.213,11.947,36.693,18.773,58.88,18.773h0.853h32.427c19.627,0,36.693,8.533,48.64,25.6 c2.293,3.439,3.426,6.874,3.667,9.278c-0.047,0.384-0.13,0.713-0.254,0.962c-1.707,3.413-10.24,6.827-24.747,6.827 c-2.001,0-3.737,0.658-5.115,1.707c-1.238,0-2.398,0-3.419,0H188.72c-26.453,0-42.667,12.8-42.667,34.133 c0,5.12,3.413,8.533,8.533,8.533s8.533-3.413,8.533-8.533c0-4.267,0-17.067,25.6-17.067h72.533c2.412,0,5.6,0,10.24,0 c0.285,0,0.557,0,0.853,0c0.853,0,2.56,0,4.267,0c40.107,0.853,77.653,0,97.28-10.24l73.387-45.227 c35.84-17.92,39.253-13.653,46.08-3.413C495.067,328.6,495.067,333.72,491.654,336.28z"/> <path d="M221.147,178.413c18.773,0,34.133-15.36,34.133-34.133c0-18.773-15.36-34.133-34.133-34.133 c-18.773,0-34.133,15.36-34.133,34.133C187.014,163.053,202.374,178.413,221.147,178.413z M221.147,127.213 c9.387,0,17.067,7.68,17.067,17.067c0,9.387-7.68,17.067-17.067,17.067c-9.387,0-17.067-7.68-17.067-17.067 C204.08,134.893,211.76,127.213,221.147,127.213z"/> <path d="M323.547,212.547c-18.773,0-34.133,15.36-34.133,34.133s15.36,34.133,34.133,34.133c18.773,0,34.133-15.36,34.133-34.133 S342.32,212.547,323.547,212.547z M323.547,263.747c-9.387,0-17.067-7.68-17.067-17.067c0-9.387,7.68-17.067,17.067-17.067 s17.067,7.68,17.067,17.067C340.614,256.067,332.934,263.747,323.547,263.747z"/> <path d="M195.547,280.813c2.56,0,4.267-0.853,5.973-2.56l153.6-153.6c3.413-3.413,3.413-8.533,0-11.947s-8.533-3.413-11.947,0 l-153.6,153.6c-3.413,3.413-3.413,8.533,0,11.947C191.28,279.96,192.987,280.813,195.547,280.813z"/> </g> </g> </g> </g>

</svg>