<?xml version="1.0" encoding="iso-8859-1"?>
<!-- Uploaded to: SVG Repo, www.svgrepo.com, Generator: SVG Repo Mixer Tools -->
<svg fill="#39cbe5" version="1.1" id="Layer_1" xmlns="http://www.w3.org/2000/svg" xmlns:xlink="http://www.w3.org/1999/xlink" 
	 viewBox="0 0 497.616 497.616" xml:space="preserve">
<g>
	<g>
		<g>
			<path d="M0.808,0v199.552c0,83.112,41.28,160.248,110.44,206.344l137.56,91.72l137.56-91.712
				c69.16-46.096,110.44-123.24,110.44-206.352V0H0.808z M480.808,199.552c0,77.752-38.624,149.912-103.312,193.032l-128.688,85.8
				L120.12,392.592C55.432,349.464,16.808,277.304,16.808,199.552V16h464V199.552z"/>
			<path d="M125.856,372.616l122.952,85.112l122.952-85.12c58.264-40.336,93.048-106.72,93.048-177.592V32h-432v163.016
				C32.808,265.888,67.592,332.272,125.856,372.616z M48.808,48h400v147.016c0,65.616-32.208,127.088-86.16,164.44l-113.84,78.816
				l-113.84-78.816c-53.952-37.344-86.16-98.816-86.16-164.44V48z"/>
			<path d="M248.808,384c88.224,0,160-71.776,160-160s-71.776-160-160-160s-160,71.776-160,160S160.584,384,248.808,384z
				 M248.808,80c79.4,0,144,64.6,144,144s-64.6,144-144,144s-144-64.6-144-144S169.408,80,248.808,80z"/>
			<path d="M160.808,320h176V192h34.424l-122.424-81.616L126.384,192h34.424V320z M272.808,304h-48v-56h48V304z M248.808,129.616
				L318.384,176H179.232L248.808,129.616z M176.808,192h144v112h-32v-72h-80v72h-32V192z"/>
		</g>
	</g>
</g>
</svg>