<svg xmlns="http://www.w3.org/2000/svg" fill="#39cbe5" viewBox="0 0 128 128">
  <title>CURRENCY</title>
  <g>
    <path d="M31.867,62.4V57.064A9.287,9.287,0,0,1,35.9,59.192l1.928-2.61a10.555,10.555,0,0,0-5.957-2.638V52.186H29.286v1.73c-3.489.425-5.843,2.78-5.843,5.843,0,3.347,2.354,4.595,5.843,5.5v5.531a9.693,9.693,0,0,1-4.566-2.439l-2.043,2.525a11.629,11.629,0,0,0,6.609,3.035v1.9h2.581V74c4.114-.284,6.468-2.667,6.468-5.929C38.335,64.61,35.754,63.277,31.867,62.4Zm-2.581-.682c-1.531-.538-2.269-1.134-2.269-2.269a2.678,2.678,0,0,1,2.269-2.439Zm2.581,9.248V65.915c2.015.595,2.922,1.191,2.922,2.5C34.789,69.659,33.8,70.737,31.867,70.964Z"/>
    <path d="M30.506,45.649A18.351,18.351,0,1,0,48.856,64,18.372,18.372,0,0,0,30.506,45.649Zm0,33.2A14.851,14.851,0,1,1,45.356,64,14.868,14.868,0,0,1,30.506,78.851Z"/>
    <path d="M64,48.856a18.35,18.35,0,1,0-18.351-18.35A18.372,18.372,0,0,0,64,48.856Zm0-33.2a14.85,14.85,0,1,1-14.851,14.85A14.867,14.867,0,0,1,64,15.656Z"/>
    <path d="M64,79.144a18.35,18.35,0,1,0,18.351,18.35A18.372,18.372,0,0,0,64,79.144Zm0,33.2a14.85,14.85,0,1,1,14.851-14.85A14.867,14.867,0,0,1,64,112.344Z"/>
    <polygon points="102.968 54.256 97.522 63.078 92.161 54.256 87.992 54.256 94.515 64.553 90.488 64.553 90.488 66.681 95.706 66.681 95.706 68.638 90.488 68.638 90.488 70.765 95.706 70.765 95.706 73.744 99.309 73.744 99.309 70.765 104.557 70.765 104.557 68.638 99.309 68.638 99.309 66.681 104.557 66.681 104.557 64.553 100.5 64.553 106.996 54.256 102.968 54.256"/>
    <path d="M97.494,38.051a25.918,25.918,0,0,0-9.254,1.7,25.945,25.945,0,1,0-48.486.007,25.944,25.944,0,1,0,.006,48.485,25.945,25.945,0,1,0,48.486-.007,25.947,25.947,0,1,0,9.248-50.188ZM41.551,30.506a22.466,22.466,0,1,1,10.441,18.96,26.174,26.174,0,0,0-6.951-6.951A22.349,22.349,0,0,1,41.551,30.506Zm31.7,24.24a25.942,25.942,0,0,0,.007,18.5,25.935,25.935,0,0,0-18.5.006,25.935,25.935,0,0,0-.006-18.5,25.933,25.933,0,0,0,18.5-.006Zm-42.741,31.7a22.466,22.466,0,1,1,18.96-10.441,26.175,26.175,0,0,0-6.953,6.953A22.355,22.355,0,0,1,30.506,86.449ZM86.449,97.494a22.466,22.466,0,1,1-10.441-18.96,26.171,26.171,0,0,0,6.953,6.952A22.355,22.355,0,0,1,86.449,97.494ZM97.494,86.449A22.439,22.439,0,0,1,78.535,51.992a26.185,26.185,0,0,0,6.952-6.953,22.446,22.446,0,1,1,12.007,41.41Z"/>
    <path d="M97.494,45.649A18.351,18.351,0,1,0,115.845,64,18.371,18.371,0,0,0,97.494,45.649Zm0,33.2A14.851,14.851,0,1,1,112.345,64,14.867,14.867,0,0,1,97.494,78.851Z"/>
    <path d="M61.872,99.52h4.992V97.392H61.872V93.9c0-2.184,1.39-3.716,3.29-3.716a3.884,3.884,0,0,1,3.66,2.355l2.411-2.326a7.561,7.561,0,0,0-6.354-3.234,6.348,6.348,0,0,0-6.525,6.7v3.715h-1.9V99.52h1.9v4.4l-2.24,1.391v1.5H71.886v-2.894H61.872Z"/>
    <path d="M64.354,40.59A10.158,10.158,0,0,0,71.7,37.413l-2.5-2.326a6.467,6.467,0,0,1-4.851,2.269,6.756,6.756,0,0,1-5.985-3.914h7.659V31.428H57.773c-.028-.312-.056-.624-.056-.936a6.873,6.873,0,0,1,.141-1.334h8.17V27.145H58.6a6.668,6.668,0,0,1,5.758-3.489,6.409,6.409,0,0,1,4.823,2.269L71.7,23.571a10.243,10.243,0,0,0-7.347-3.149,10.391,10.391,0,0,0-9.644,6.723H52.3v2.013h1.9a10.337,10.337,0,0,0-.085,1.334c0,.312.029.624.057.936H52.3v2.014h2.269A10.433,10.433,0,0,0,64.354,40.59Z"/>
  </g>
</svg>
