<?xml version="1.0" encoding="iso-8859-1"?>
<!-- Uploaded to: SVG Repo, www.svgrepo.com, Generator: SVG Repo Mixer Tools -->
<svg fill="#39cbe5" version="1.1" id="Layer_1" xmlns="http://www.w3.org/2000/svg" xmlns:xlink="http://www.w3.org/1999/xlink" 
	 viewBox="0 0 512 512" xml:space="preserve">
<g>
	<g>
		<path d="M256,1.468L0,254.587h39.984v255.945h432.033V254.587H512L256,1.468z M441.78,480.294H70.221V227.679L256,43.99
			l185.78,183.689V480.294z"/>
	</g>
</g>
<g>
	<g>
		<path d="M231.69,210.311c-22.302-22.304-58.592-22.303-80.893,0c-22.302,22.303-22.302,58.592,0,80.894
			c10.804,10.805,25.168,16.754,40.447,16.754c15.279,0,29.643-5.95,40.446-16.753c10.805-10.805,16.754-25.168,16.754-40.447
			C248.445,235.479,242.495,221.114,231.69,210.311z M210.31,269.823c-5.093,5.093-11.863,7.898-19.065,7.898
			c-7.203,0-13.974-2.805-19.067-7.898c-10.512-10.513-10.512-27.619,0.001-38.132c10.511-10.514,27.618-10.511,38.131,0
			c5.093,5.093,7.898,11.865,7.898,19.067C218.208,257.959,215.403,264.73,210.31,269.823z"/>
	</g>
</g>
<g>
	<g>
		<path d="M361.203,339.823c-10.804-10.805-25.168-16.754-40.447-16.754c-15.279,0-29.643,5.95-40.446,16.753
			c-10.805,10.805-16.754,25.168-16.754,40.447c0,15.279,5.95,29.644,16.754,40.447c11.151,11.151,25.798,16.727,40.446,16.727
			s29.297-5.577,40.447-16.727C383.505,398.414,383.505,362.125,361.203,339.823z M339.822,399.335
			c-10.512,10.514-27.618,10.513-38.132,0.001c-5.093-5.093-7.898-11.865-7.898-19.067s2.805-13.973,7.898-19.066
			s11.863-7.898,19.066-7.898c7.202,0,13.974,2.805,19.067,7.898C350.335,371.718,350.335,388.823,339.822,399.335z"/>
	</g>
</g>
<g>
	<g>
		
			<rect x="107.096" y="300.39" transform="matrix(0.7071 -0.7071 0.7071 0.7071 -148.1181 273.4275)" width="297.803" height="30.237"/>
	</g>
</g>
</svg>